<svg xmlns="http://www.w3.org/2000/svg" version="1.1" xmlns:xlink="http://www.w3.org/1999/xlink" xmlns:svgjs="http://svgjs.dev/svgjs" width="1000" height="343" viewBox="0 0 1000 343"><g transform="matrix(1,0,0,1,-0.6060606060606233,-0.17827137845821994)"><svg viewBox="0 0 396 136" data-background-color="#ffffff" preserveAspectRatio="xMidYMid meet" height="343" width="1000" xmlns="http://www.w3.org/2000/svg" xmlns:xlink="http://www.w3.org/1999/xlink"><g id="tight-bounds" transform="matrix(1,0,0,1,0.2400000000000091,0.07068486142949837)"><svg viewBox="0 0 395.52 135.85863027714103" height="135.85863027714103" width="395.52"><g><svg viewBox="0 0 397.4975999999999 136.5379234285267" height="135.85863027714103" width="395.52"><g><rect width="397.4975999999999" height="4.181976260191452" x="0" y="75.03524043931482" fill="#0080ff" opacity="1" stroke-width="0" stroke="transparent" fill-opacity="1" class="rect-o-0" data-fill-palette-color="secondary" rx="1%" id="o-0" data-palette-color="#0080ff"></rect></g><g transform="matrix(1,0,0,1,0.9887999999999693,90.16479853246818)"><svg viewBox="0 0 395.52 46.37312489605854" height="46.37312489605854" width="395.52"><g><svg viewBox="0 0 395.52 46.37312489605854" height="46.37312489605854" width="395.52"><g><svg viewBox="0 0 395.52 46.37312489605854" height="46.37312489605854" width="395.52"><g transform="matrix(1,0,0,1,0,0)"><svg width="395.52" viewBox="3.9000000953674316 -35.25 300.6300048828125 35.25" height="46.37312489605854" data-palette-color="#057aef"><path d="M21.1-12.2L33.15-35.25 38.2-35.25 38.2 0 32.5 0 32.5-23.3 23.2-5.7 18.9-5.7 9.55-23.05 9.6 0 3.9 0 3.9-35.25 9-35.25 21.1-12.2ZM69.45 0L45.85 0 45.85-35.25 69.45-35.25 69.45-30.15 52.15-30.15 52.15-20.45 68.45-20.45 68.45-15.4 52.15-15.4 52.15-5.1 69.45-5.1 69.45 0ZM98.95-10.8L104.84 0 97.84 0 91.8-11.25Q90.95-12.85 89.7-13.5 88.45-14.15 86.55-14.15L86.55-14.15 81.65-14.15 81.65 0 75.3 0 75.3-35.25 90.9-35.25Q96.9-35.25 100.02-32.58 103.15-29.9 103.15-24.85L103.15-24.85Q103.15-20.8 100.87-18.18 98.59-15.55 94.45-14.75L94.45-14.75Q97.25-14 98.95-10.8L98.95-10.8ZM90-19.1Q93.65-19.1 95.34-20.48 97.05-21.85 97.05-24.7L97.05-24.7Q97.05-27.6 95.34-28.93 93.65-30.25 90-30.25L90-30.25 81.59-30.25 81.59-19.1 90-19.1ZM122.84-18.3L140.69 0 132.84 0 116.49-16.4 116.49 0 110.04 0 110.04-35.25 116.49-35.25 116.49-19.5 132.19-35.25 139.89-35.25 122.84-18.3ZM166.64 0L143.04 0 143.04-35.25 166.64-35.25 166.64-30.15 149.34-30.15 149.34-20.45 165.64-20.45 165.64-15.4 149.34-15.4 149.34-5.1 166.64-5.1 166.64 0ZM196.49-30.6L178.29-5.15 197.04-5.15 197.04 0 171.09 0 171.09-4.7 189.19-30.1 171.09-30.1 171.09-35.25 196.49-35.25 196.49-30.6ZM239.03 0L216.13 0 216.13-35.25 222.58-35.25 222.58-5.3 239.03-5.3 239.03 0ZM267.48 0L243.88 0 243.88-35.25 267.48-35.25 267.48-30.15 250.18-30.15 250.18-20.45 266.48-20.45 266.48-15.4 250.18-15.4 250.18-5.1 267.48-5.1 267.48 0ZM273.33 0L273.33-35.25 286.33-35.25Q294.98-35.25 299.75-30.63 304.53-26 304.53-17.65L304.53-17.65Q304.53-9.3 299.75-4.65 294.98 0 286.33 0L286.33 0 273.33 0ZM279.78-5.25L285.93-5.25Q298.08-5.25 298.08-17.65L298.08-17.65Q298.08-30 285.93-30L285.93-30 279.78-30 279.78-5.25Z" opacity="1" transform="matrix(1,0,0,1,0,0)" fill="#057aef" class="undefined-text-0" data-fill-palette-color="primary" id="text-0"></path></svg></g></svg></g></svg></g></svg></g><g transform="matrix(1,0,0,1,169.29097114287896,0)"><svg viewBox="0 0 58.91565771424203 64.0876586063529" height="64.0876586063529" width="58.91565771424203"><g><svg xmlns="http://www.w3.org/2000/svg" xmlns:xlink="http://www.w3.org/1999/xlink" version="1.1" x="8" y="0" viewBox="16.51799964904785 0 66.96399688720703 100" enable-background="new 0 0 100 100" xml:space="preserve" height="64.0876586063529" width="42.91565771424203" class="icon-icon-0" data-fill-palette-color="accent" id="icon-0"><path d="M50 16.89c0.513 0 1.021 0.024 1.523 0.073V0h-3.046v16.963C48.979 16.914 49.487 16.89 50 16.89z" fill="#0080ff" data-fill-palette-color="accent"></path><path d="M33.51 33.379c0-0.479 0.024-0.947 0.063-1.416H16.518v3.047h17.07C33.54 34.473 33.51 33.931 33.51 33.379z" fill="#0080ff" data-fill-palette-color="accent"></path><path d="M62.739 22.905l12.012-12.017L72.603 8.73 60.591 20.742C61.366 21.396 62.089 22.119 62.739 22.905z" fill="#0080ff" data-fill-palette-color="accent"></path><path d="M39.414 20.742L27.402 8.73l-2.158 2.158L37.26 22.905C37.91 22.119 38.632 21.396 39.414 20.742z" fill="#0080ff" data-fill-palette-color="accent"></path><path d="M66.431 31.963c0.039 0.469 0.059 0.938 0.059 1.416 0 0.552-0.029 1.094-0.078 1.631h17.07v-3.047H66.431z" fill="#0080ff" data-fill-palette-color="accent"></path><polygon points="62.456,52.363 37.543,52.363 37.543,56.689 44.917,56.689 44.917,100 47.968,100 47.968,56.689 52.03,56.689   52.03,86.133 55.083,86.133 55.083,56.689 62.456,56.689 " fill="#0080ff" data-fill-palette-color="accent"></polygon><path d="M50 22.881c-5.195 0-9.404 4.209-9.404 9.404v0.005 18.804h18.808V32.3c0-0.005 0-0.01 0-0.015C59.403 27.09 55.194 22.881 50 22.881zM53.237 30.464c-0.963 0.171-1.88-0.649-2.901-0.366-1.475 0.405-0.913 1.396-1.543 2.451-0.63 1.069-2.153 1.377-3.242 0.737-3.398-1.992 0.034-6.367 2.183-7.031 1.704-1.333 5.181-0.4 6.421 1.709C54.79 29.043 54.481 30.239 53.237 30.464z" fill="#0080ff" data-fill-palette-color="accent"></path></svg></g></svg></g><g><rect width="92.75785114287898" height="4.181976260191452" y="58.90568234616145" x="228.206628857121" fill="#0080ff" data-fill-palette-color="secondary"></rect><rect width="92.75785114287898" height="4.181976260191452" y="58.90568234616145" x="76.53311999999997" fill="#0080ff" data-fill-palette-color="secondary"></rect></g></svg></g><defs></defs></svg><rect width="395.52" height="135.85863027714103" fill="none" stroke="none" visibility="hidden"></rect></g></svg></g></svg>